<?xml version="1.0" standalone="no"?>
<!DOCTYPE svg PUBLIC "-//W3C//DTD SVG 1.1//EN" "http://www.w3.org/Graphics/SVG/1.1/DTD/svg11.dtd">

<svg width="791" height="400" version="1.1" xmlns="http://www.w3.org/2000/svg">
	<ellipse stroke="white" stroke-width="1" fill="none" cx="182.5" cy="268.5" rx="30" ry="30"/>
	<text fill="white" x="175.5" y="274.5" font-family="Times New Roman" font-size="20">A</text>
	<ellipse stroke="white" stroke-width="1" fill="none" cx="372.5" cy="268.5" rx="30" ry="30"/>
	<text fill="white" x="365.5" y="274.5" font-family="Times New Roman" font-size="20">C</text>
	<ellipse stroke="white" stroke-width="1" fill="none" cx="372.5" cy="268.5" rx="24" ry="24"/>
	<polygon stroke="white" stroke-width="1" points="103.5,268.5 152.5,268.5"/>
	<polygon fill="white" stroke-width="1" points="152.5,268.5 144.5,263.5 144.5,273.5"/>
	<path stroke="white" stroke-width="1" fill="none" d="M 169.275,241.703 A 22.5,22.5 0 1 1 195.725,241.703"/>
	<text fill="white" x="170.5" y="192.5" font-family="Times New Roman" font-size="20">0,1</text>
	<polygon fill="white" stroke-width="1" points="195.725,241.703 204.473,238.17 196.382,232.292"/>
	<path stroke="white" stroke-width="1" fill="none" d="M 169.275,241.703 A 22.5,22.5 0 1 1 195.725,241.703"/>
	<polygon fill="white" stroke-width="1" points="195.725,241.703 204.473,238.17 196.382,232.292"/>
	<polygon stroke="white" stroke-width="1" points="212.5,268.5 342.5,268.5"/>
	<polygon fill="white" stroke-width="1" points="342.5,268.5 334.5,263.5 334.5,273.5"/>
	<text fill="white" x="250.5" y="289.5" font-family="Times New Roman" font-size="20">1(0+1)</text>
</svg>
