<?xml version="1.0" standalone="no"?>
<!DOCTYPE svg PUBLIC "-//W3C//DTD SVG 1.1//EN" "http://www.w3.org/Graphics/SVG/1.1/DTD/svg11.dtd">

<svg width="800" height="400" version="1.1" xmlns="http://www.w3.org/2000/svg">
	<ellipse stroke="white" stroke-width="1" fill="none" cx="170.5" cy="257.5" rx="30" ry="30"/>
	<text fill="white" x="165.5" y="263.5" font-family="Times New Roman" font-size="20">1</text>
	<ellipse stroke="white" stroke-width="1" fill="none" cx="398.5" cy="257.5" rx="30" ry="30"/>
	<text fill="white" x="393.5" y="263.5" font-family="Times New Roman" font-size="20">2</text>
	<ellipse stroke="white" stroke-width="1" fill="none" cx="398.5" cy="257.5" rx="24" ry="24"/>
	<polygon stroke="white" stroke-width="1" points="200.5,257.5 368.5,257.5"/>
	<polygon fill="white" stroke-width="1" points="368.5,257.5 360.5,252.5 360.5,262.5"/>
	<text fill="white" x="279.5" y="278.5" font-family="Times New Roman" font-size="20">0</text>
	<path stroke="white" stroke-width="1" fill="none" d="M 157.275,230.703 A 22.5,22.5 0 1 1 183.725,230.703"/>
	<text fill="white" x="165.5" y="181.5" font-family="Times New Roman" font-size="20">1</text>
	<polygon fill="white" stroke-width="1" points="183.725,230.703 192.473,227.17 184.382,221.292"/>
	<polygon stroke="white" stroke-width="1" points="95.5,257.5 140.5,257.5"/>
	<polygon fill="white" stroke-width="1" points="140.5,257.5 132.5,252.5 132.5,262.5"/>
	<path stroke="white" stroke-width="1" fill="none" d="M 385.275,230.703 A 22.5,22.5 0 1 1 411.725,230.703"/>
	<text fill="white" x="383.5" y="181.5" font-family="Times New Roman" font-size="20">0, 1</text>
	<polygon fill="white" stroke-width="1" points="411.725,230.703 420.473,227.17 412.382,221.292"/>
</svg>
