<?xml version="1.0" standalone="no"?>
<!DOCTYPE svg PUBLIC "-//W3C//DTD SVG 1.1//EN" "http://www.w3.org/Graphics/SVG/1.1/DTD/svg11.dtd">

<svg width="800" height="593" version="1.1" xmlns="http://www.w3.org/2000/svg">
	<ellipse stroke="white" stroke-width="1" fill="none" cx="344.5" cy="109.5" rx="30" ry="30"/>
	<text fill="white" x="339.5" y="115.5" font-family="Times New Roman" font-size="20">1</text>
	<ellipse stroke="white" stroke-width="1" fill="none" cx="502.5" cy="109.5" rx="30" ry="30"/>
	<text fill="white" x="497.5" y="115.5" font-family="Times New Roman" font-size="20">2</text>
	<ellipse stroke="white" stroke-width="1" fill="none" cx="344.5" cy="250.5" rx="30" ry="30"/>
	<text fill="white" x="339.5" y="256.5" font-family="Times New Roman" font-size="20">3</text>
	<ellipse stroke="white" stroke-width="1" fill="none" cx="502.5" cy="250.5" rx="30" ry="30"/>
	<text fill="white" x="497.5" y="256.5" font-family="Times New Roman" font-size="20">4</text>
	<ellipse stroke="white" stroke-width="1" fill="none" cx="254.5" cy="180.5" rx="30" ry="30"/>
	<text fill="white" x="249.5" y="186.5" font-family="Times New Roman" font-size="20">0</text>
	<ellipse stroke="white" stroke-width="1" fill="none" cx="566.5" cy="180.5" rx="30" ry="30"/>
	<text fill="white" x="561.5" y="186.5" font-family="Times New Roman" font-size="20">5</text>
	<ellipse stroke="white" stroke-width="1" fill="none" cx="254.5" cy="325.5" rx="30" ry="30"/>
	<text fill="white" x="249.5" y="331.5" font-family="Times New Roman" font-size="20">6</text>
	<ellipse stroke="white" stroke-width="1" fill="none" cx="566.5" cy="325.5" rx="30" ry="30"/>
	<text fill="white" x="561.5" y="331.5" font-family="Times New Roman" font-size="20">7</text>
	<ellipse stroke="white" stroke-width="1" fill="none" cx="568.5" cy="429.5" rx="30" ry="30"/>
	<text fill="white" x="563.5" y="435.5" font-family="Times New Roman" font-size="20">8</text>
	<ellipse stroke="white" stroke-width="1" fill="none" cx="449.5" cy="429.5" rx="30" ry="30"/>
	<text fill="white" x="444.5" y="435.5" font-family="Times New Roman" font-size="20">9</text>
	<ellipse stroke="white" stroke-width="1" fill="none" cx="354.5" cy="384.5" rx="30" ry="30"/>
	<text fill="white" x="344.5" y="390.5" font-family="Times New Roman" font-size="20">10</text>
	<ellipse stroke="white" stroke-width="1" fill="none" cx="354.5" cy="482.5" rx="30" ry="30"/>
	<text fill="white" x="344.5" y="488.5" font-family="Times New Roman" font-size="20">11</text>
	<ellipse stroke="white" stroke-width="1" fill="none" cx="212.5" cy="384.5" rx="30" ry="30"/>
	<text fill="white" x="202.5" y="390.5" font-family="Times New Roman" font-size="20">12</text>
	<ellipse stroke="white" stroke-width="1" fill="none" cx="212.5" cy="482.5" rx="30" ry="30"/>
	<text fill="white" x="202.5" y="488.5" font-family="Times New Roman" font-size="20">13</text>
	<ellipse stroke="white" stroke-width="1" fill="none" cx="128.5" cy="429.5" rx="30" ry="30"/>
	<text fill="white" x="118.5" y="435.5" font-family="Times New Roman" font-size="20">14</text>
	<ellipse stroke="white" stroke-width="1" fill="none" cx="128.5" cy="429.5" rx="24" ry="24"/>
	<polygon stroke="white" stroke-width="1" points="374.5,109.5 472.5,109.5"/>
	<polygon fill="white" stroke-width="1" points="472.5,109.5 464.5,104.5 464.5,114.5"/>
	<text fill="white" x="418.5" y="130.5" font-family="Times New Roman" font-size="20">0</text>
	<polygon stroke="white" stroke-width="1" points="374.5,250.5 472.5,250.5"/>
	<polygon fill="white" stroke-width="1" points="472.5,250.5 464.5,245.5 464.5,255.5"/>
	<text fill="white" x="418.5" y="271.5" font-family="Times New Roman" font-size="20">1</text>
	<polygon stroke="white" stroke-width="1" points="278.053,161.919 320.947,128.081"/>
	<polygon fill="white" stroke-width="1" points="320.947,128.081 311.569,129.11 317.763,136.961"/>
	<text fill="white" x="304.5" y="165.5" font-family="Times New Roman" font-size="20">&#949;</text>
	<polygon stroke="white" stroke-width="1" points="278.181,198.918 320.819,232.082"/>
	<polygon fill="white" stroke-width="1" points="320.819,232.082 317.574,223.223 311.435,231.117"/>
	<text fill="white" x="286.5" y="236.5" font-family="Times New Roman" font-size="20">&#949;</text>
	<polygon stroke="white" stroke-width="1" points="522.586,131.783 546.414,158.217"/>
	<polygon fill="white" stroke-width="1" points="546.414,158.217 544.771,148.927 537.344,155.622"/>
	<text fill="white" x="520.5" y="165.5" font-family="Times New Roman" font-size="20">&#949;</text>
	<polygon stroke="white" stroke-width="1" points="522.743,228.359 546.257,202.641"/>
	<polygon fill="white" stroke-width="1" points="546.257,202.641 537.169,205.171 544.549,211.919"/>
	<text fill="white" x="539.5" y="236.5" font-family="Times New Roman" font-size="20">&#949;</text>
	<polygon stroke="white" stroke-width="1" points="254.5,295.5 254.5,210.5"/>
	<polygon fill="white" stroke-width="1" points="254.5,210.5 249.5,218.5 259.5,218.5"/>
	<text fill="white" x="259.5" y="259.5" font-family="Times New Roman" font-size="20">&#949;</text>
	<polygon stroke="white" stroke-width="1" points="566.5,210.5 566.5,295.5"/>
	<polygon fill="white" stroke-width="1" points="566.5,295.5 571.5,287.5 561.5,287.5"/>
	<text fill="white" x="553.5" y="259.5" font-family="Times New Roman" font-size="20">&#949;</text>
	<polygon stroke="white" stroke-width="1" points="536.5,180.5 284.5,180.5"/>
	<polygon fill="white" stroke-width="1" points="284.5,180.5 292.5,185.5 292.5,175.5"/>
	<text fill="white" x="406.5" y="171.5" font-family="Times New Roman" font-size="20">&#949;</text>
	<polygon stroke="white" stroke-width="1" points="284.5,325.5 536.5,325.5"/>
	<polygon fill="white" stroke-width="1" points="536.5,325.5 528.5,320.5 528.5,330.5"/>
	<text fill="white" x="406.5" y="346.5" font-family="Times New Roman" font-size="20">&#949;</text>
	<polygon stroke="white" stroke-width="1" points="178.5,325.5 224.5,325.5"/>
	<polygon fill="white" stroke-width="1" points="224.5,325.5 216.5,320.5 216.5,330.5"/>
	<polygon stroke="white" stroke-width="1" points="567.077,355.494 567.923,399.506"/>
	<polygon fill="white" stroke-width="1" points="567.923,399.506 572.768,391.411 562.77,391.603"/>
	<text fill="white" x="553.5" y="383.5" font-family="Times New Roman" font-size="20">&#949;</text>
	<polygon stroke="white" stroke-width="1" points="538.5,429.5 479.5,429.5"/>
	<polygon fill="white" stroke-width="1" points="479.5,429.5 487.5,434.5 487.5,424.5"/>
	<text fill="white" x="504.5" y="420.5" font-family="Times New Roman" font-size="20">1</text>
	<polygon stroke="white" stroke-width="1" points="422.388,416.657 381.612,397.343"/>
	<polygon fill="white" stroke-width="1" points="381.612,397.343 386.702,405.286 390.982,396.249"/>
	<text fill="white" x="406.5" y="397.5" font-family="Times New Roman" font-size="20">&#949;</text>
	<polygon stroke="white" stroke-width="1" points="423.301,444.116 380.699,467.884"/>
	<polygon fill="white" stroke-width="1" points="380.699,467.884 390.121,468.353 385.249,459.62"/>
	<text fill="white" x="388.5" y="446.5" font-family="Times New Roman" font-size="20">&#949;</text>
	<polygon stroke="white" stroke-width="1" points="324.5,384.5 242.5,384.5"/>
	<polygon fill="white" stroke-width="1" points="242.5,384.5 250.5,389.5 250.5,379.5"/>
	<text fill="white" x="278.5" y="405.5" font-family="Times New Roman" font-size="20">0</text>
	<polygon stroke="white" stroke-width="1" points="324.5,482.5 242.5,482.5"/>
	<polygon fill="white" stroke-width="1" points="242.5,482.5 250.5,487.5 250.5,477.5"/>
	<text fill="white" x="278.5" y="473.5" font-family="Times New Roman" font-size="20">1</text>
	<polygon stroke="white" stroke-width="1" points="186.056,398.667 154.944,415.333"/>
	<polygon fill="white" stroke-width="1" points="154.944,415.333 164.357,415.963 159.635,407.148"/>
	<text fill="white" x="157.5" y="397.5" font-family="Times New Roman" font-size="20">&#949;</text>
	<polygon stroke="white" stroke-width="1" points="187.128,466.492 153.872,445.508"/>
	<polygon fill="white" stroke-width="1" points="153.872,445.508 157.97,454.006 163.306,445.549"/>
	<text fill="white" x="175.5" y="447.5" font-family="Times New Roman" font-size="20">&#949;</text>
</svg>
