<?xml version="1.0" standalone="no"?>
<!DOCTYPE svg PUBLIC "-//W3C//DTD SVG 1.1//EN" "http://www.w3.org/Graphics/SVG/1.1/DTD/svg11.dtd">

<svg width="797" height="400" version="1.1" xmlns="http://www.w3.org/2000/svg">
	<ellipse stroke="white" stroke-width="1" fill="none" cx="161.5" cy="260.5" rx="30" ry="30"/>
	<text fill="white" x="154.5" y="266.5" font-family="Times New Roman" font-size="20">A</text>
	<ellipse stroke="white" stroke-width="1" fill="none" cx="410.5" cy="260.5" rx="30" ry="30"/>
	<text fill="white" x="403.5" y="266.5" font-family="Times New Roman" font-size="20">C</text>
	<ellipse stroke="white" stroke-width="1" fill="none" cx="410.5" cy="260.5" rx="24" ry="24"/>
	<ellipse stroke="white" stroke-width="1" fill="none" cx="526.5" cy="260.5" rx="30" ry="30"/>
	<text fill="white" x="519.5" y="266.5" font-family="Times New Roman" font-size="20">D</text>
	<ellipse stroke="white" stroke-width="1" fill="none" cx="526.5" cy="260.5" rx="24" ry="24"/>
	<polygon stroke="white" stroke-width="1" points="82.5,260.5 131.5,260.5"/>
	<polygon fill="white" stroke-width="1" points="131.5,260.5 123.5,255.5 123.5,265.5"/>
	<path stroke="white" stroke-width="1" fill="none" d="M 148.275,233.703 A 22.5,22.5 0 1 1 174.725,233.703"/>
	<text fill="white" x="149.5" y="184.5" font-family="Times New Roman" font-size="20">0,1</text>
	<polygon fill="white" stroke-width="1" points="174.725,233.703 183.473,230.17 175.382,224.292"/>
	<path stroke="white" stroke-width="1" fill="none" d="M 148.275,233.703 A 22.5,22.5 0 1 1 174.725,233.703"/>
	<polygon fill="white" stroke-width="1" points="174.725,233.703 183.473,230.17 175.382,224.292"/>
	<polygon stroke="white" stroke-width="1" points="440.5,260.5 496.5,260.5"/>
	<polygon fill="white" stroke-width="1" points="496.5,260.5 488.5,255.5 488.5,265.5"/>
	<text fill="white" x="456.5" y="281.5" font-family="Times New Roman" font-size="20">0,1</text>
	<polygon stroke="white" stroke-width="1" points="191.5,260.5 380.5,260.5"/>
	<polygon fill="white" stroke-width="1" points="380.5,260.5 372.5,255.5 372.5,265.5"/>
	<text fill="white" x="258.5" y="281.5" font-family="Times New Roman" font-size="20">1(0+1)</text>
</svg>
